<mxfile host="app.diagrams.net" modified="2021-10-21T06:03:32.744Z" agent="5.0 (Windows NT 10.0; Win64; x64) AppleWebKit/537.36 (KHTML, like Gecko) Chrome/94.0.4606.81 Safari/537.36" etag="xTM026UPB64Z7S32nYPt" version="15.5.6" type="github">
  <diagram id="hylY_uPxdQpW8fuP7KE9" name="Page-1">
    <mxGraphModel dx="1019" dy="524" grid="1" gridSize="10" guides="1" tooltips="1" connect="1" arrows="1" fold="1" page="1" pageScale="1" pageWidth="850" pageHeight="1100" math="0" shadow="0">
      <root>
        <mxCell id="0" />
        <mxCell id="1" parent="0" />
        <mxCell id="ZZFL385WuHnoUpsG8bzU-1" value="" style="rounded=0;whiteSpace=wrap;html=1;" vertex="1" parent="1">
          <mxGeometry x="100" y="360" width="100" height="50" as="geometry" />
        </mxCell>
        <mxCell id="ZZFL385WuHnoUpsG8bzU-2" value="" style="ellipse;whiteSpace=wrap;html=1;aspect=fixed;" vertex="1" parent="1">
          <mxGeometry x="329.38" y="340" width="90" height="90" as="geometry" />
        </mxCell>
        <mxCell id="ZZFL385WuHnoUpsG8bzU-5" value="" style="shape=partialRectangle;whiteSpace=wrap;html=1;top=0;bottom=0;fillColor=none;rotation=90;" vertex="1" parent="1">
          <mxGeometry x="363.13" y="490" width="32.5" height="98.75" as="geometry" />
        </mxCell>
        <mxCell id="ZZFL385WuHnoUpsG8bzU-6" value="&lt;b&gt;Database&lt;/b&gt;" style="text;html=1;strokeColor=none;fillColor=none;align=center;verticalAlign=middle;whiteSpace=wrap;rounded=0;" vertex="1" parent="1">
          <mxGeometry x="349.38" y="524.38" width="60" height="30" as="geometry" />
        </mxCell>
        <mxCell id="ZZFL385WuHnoUpsG8bzU-7" value="&lt;b&gt;User&lt;/b&gt;" style="text;html=1;strokeColor=none;fillColor=none;align=center;verticalAlign=middle;whiteSpace=wrap;rounded=0;" vertex="1" parent="1">
          <mxGeometry x="95" y="368.75" width="105" height="32.5" as="geometry" />
        </mxCell>
        <mxCell id="ZZFL385WuHnoUpsG8bzU-8" value="&lt;b&gt;1.0&lt;br&gt;&amp;nbsp;Create&amp;nbsp;&lt;br&gt;Template&lt;/b&gt;" style="text;html=1;strokeColor=none;fillColor=none;align=center;verticalAlign=middle;whiteSpace=wrap;rounded=0;" vertex="1" parent="1">
          <mxGeometry x="339.38" y="365" width="70" height="40" as="geometry" />
        </mxCell>
        <mxCell id="ZZFL385WuHnoUpsG8bzU-16" value="" style="endArrow=classic;html=1;rounded=0;exitX=1;exitY=0;exitDx=0;exitDy=0;" edge="1" parent="1">
          <mxGeometry width="50" height="50" relative="1" as="geometry">
            <mxPoint x="200" y="370.75" as="sourcePoint" />
            <mxPoint x="330" y="369" as="targetPoint" />
          </mxGeometry>
        </mxCell>
        <mxCell id="ZZFL385WuHnoUpsG8bzU-17" value="" style="endArrow=classic;html=1;rounded=0;entryX=1;entryY=1;entryDx=0;entryDy=0;exitX=-0.002;exitY=0.675;exitDx=0;exitDy=0;exitPerimeter=0;" edge="1" parent="1" source="ZZFL385WuHnoUpsG8bzU-2" target="ZZFL385WuHnoUpsG8bzU-7">
          <mxGeometry width="50" height="50" relative="1" as="geometry">
            <mxPoint x="320" y="401" as="sourcePoint" />
            <mxPoint x="220" y="400" as="targetPoint" />
          </mxGeometry>
        </mxCell>
        <mxCell id="ZZFL385WuHnoUpsG8bzU-18" value="" style="endArrow=classic;html=1;rounded=0;" edge="1" parent="1">
          <mxGeometry width="50" height="50" relative="1" as="geometry">
            <mxPoint x="1130" y="760" as="sourcePoint" />
            <mxPoint x="1131" y="856" as="targetPoint" />
          </mxGeometry>
        </mxCell>
        <mxCell id="ZZFL385WuHnoUpsG8bzU-19" value="" style="endArrow=classic;html=1;rounded=0;" edge="1" parent="1">
          <mxGeometry width="50" height="50" relative="1" as="geometry">
            <mxPoint x="356" y="520" as="sourcePoint" />
            <mxPoint x="356" y="430" as="targetPoint" />
          </mxGeometry>
        </mxCell>
        <mxCell id="ZZFL385WuHnoUpsG8bzU-20" value="Request for creating template" style="text;html=1;strokeColor=none;fillColor=none;align=center;verticalAlign=middle;whiteSpace=wrap;rounded=0;" vertex="1" parent="1">
          <mxGeometry x="210" y="320" width="100" height="30" as="geometry" />
        </mxCell>
        <mxCell id="ZZFL385WuHnoUpsG8bzU-21" value="Preview template" style="text;html=1;strokeColor=none;fillColor=none;align=center;verticalAlign=middle;whiteSpace=wrap;rounded=0;" vertex="1" parent="1">
          <mxGeometry x="240" y="410" width="60" height="30" as="geometry" />
        </mxCell>
        <mxCell id="ZZFL385WuHnoUpsG8bzU-22" value="Save template data" style="text;html=1;strokeColor=none;fillColor=none;align=center;verticalAlign=middle;whiteSpace=wrap;rounded=0;" vertex="1" parent="1">
          <mxGeometry x="395.63" y="460" width="61" height="30" as="geometry" />
        </mxCell>
        <mxCell id="ZZFL385WuHnoUpsG8bzU-23" value="Response template data" style="text;html=1;strokeColor=none;fillColor=none;align=center;verticalAlign=middle;whiteSpace=wrap;rounded=0;" vertex="1" parent="1">
          <mxGeometry x="270" y="460" width="90" height="30" as="geometry" />
        </mxCell>
        <mxCell id="ZZFL385WuHnoUpsG8bzU-24" value="" style="endArrow=classic;html=1;rounded=0;" edge="1" parent="1">
          <mxGeometry width="50" height="50" relative="1" as="geometry">
            <mxPoint x="389" y="431" as="sourcePoint" />
            <mxPoint x="389" y="520" as="targetPoint" />
          </mxGeometry>
        </mxCell>
      </root>
    </mxGraphModel>
  </diagram>
</mxfile>
